<?xml version="1.0" standalone="no"?>
<!DOCTYPE svg PUBLIC "-//W3C//DTD SVG 20010904//EN"
 "http://www.w3.org/TR/2001/REC-SVG-20010904/DTD/svg10.dtd">
<svg version="1.0" xmlns="http://www.w3.org/2000/svg"
 width="512.000000pt" height="512.000000pt" viewBox="0 0 512.000000 512.000000"
 preserveAspectRatio="xMidYMid meet">
<metadata>
Created by potrace 1.11, written by Peter Selinger 2001-2013
</metadata>
<g transform="translate(0.000000,512.000000) scale(0.100000,-0.100000)"
fill="#000000" stroke="none">
<path d="M2191 4230 c-26 -41 -252 -392 -501 -780 -250 -388 -483 -751 -519
-807 -36 -57 -156 -242 -266 -413 -110 -170 -210 -327 -223 -347 -12 -21 -171
-267 -352 -548 l-329 -510 1280 -3 c703 -1 1855 -1 2558 0 l1280 3 -110 170
c-61 94 -136 211 -168 260 -83 129 -836 1296 -972 1508 -184 286 -300 466
-597 927 -155 239 -307 477 -339 528 l-58 93 -318 -3 -318 -3 -48 -75z"/>
</g>
</svg>
